<svg width="48" height="48" viewBox="0 0 48 48" fill="none" xmlns="http://www.w3.org/2000/svg">
<path d="M7.80029 35V34.0053H8.63961C9.13698 34.0053 9.54109 33.9534 9.85195 33.8498C10.1835 33.7255 10.4219 33.4872 10.5669 33.1349C10.7327 32.7826 10.8156 32.2541 10.8156 31.5495V16.2553C10.8156 15.53 10.7327 15.0015 10.5669 14.6699C10.4219 14.3176 10.1835 14.0897 9.85195 13.9861C9.54109 13.8617 9.13698 13.7995 8.63961 13.7995H7.80029V12.8048H15.9137V13.7995H15.1054C14.6288 13.7995 14.2247 13.8514 13.8931 13.955C13.5822 14.0586 13.3439 14.2866 13.1781 14.6389C13.0123 14.9704 12.9294 15.4885 12.9294 16.1931V33.7877H20.0792C20.6594 33.7877 21.1153 33.684 21.4469 33.4768C21.7785 33.2696 22.0065 32.9794 22.1308 32.6064C22.2759 32.2334 22.3691 31.7982 22.4106 31.3008L22.6593 28.472H23.8094L23.5918 35H7.80029ZM25.6892 35V34.0053H26.5285C27.0258 34.0053 27.43 33.9534 27.7408 33.8498C28.0724 33.7255 28.3107 33.4872 28.4558 33.1349C28.6216 32.7826 28.7045 32.2541 28.7045 31.5495V16.1931C28.7045 15.4885 28.6216 14.9704 28.4558 14.6389C28.3107 14.2866 28.0724 14.0586 27.7408 13.955C27.4092 13.8514 27.0051 13.7995 26.5285 13.7995H25.6892V12.8048H33.989C36.4759 12.8048 38.2892 13.3747 39.429 14.5145C40.5688 15.6336 41.1388 17.2086 41.1388 19.2395C41.1388 20.1928 41.004 21.0943 40.7346 21.944C40.4652 22.7937 40.0197 23.5397 39.398 24.1822C38.797 24.8246 37.9887 25.3323 36.9733 25.7054C35.9785 26.0784 34.7558 26.2649 33.3052 26.2649H30.8183V31.6117C30.8183 32.3163 30.9012 32.8447 31.067 33.197C31.2328 33.5286 31.4711 33.7462 31.782 33.8498C32.1135 33.9534 32.5176 34.0053 32.9943 34.0053H34.4242V35H25.6892ZM33.1186 25.1147C34.1963 25.1147 35.1081 24.9904 35.8542 24.7417C36.6002 24.4723 37.2012 24.0889 37.6572 23.5915C38.1131 23.0942 38.4343 22.4932 38.6208 21.7886C38.828 21.0632 38.9317 20.2343 38.9317 19.3017C38.9317 18.1205 38.7555 17.1361 38.4032 16.3486C38.0716 15.5611 37.5224 14.9704 36.7557 14.5767C35.9889 14.1829 34.9734 13.9861 33.7093 13.9861H30.8183V25.1147H33.1186Z" fill="white"/>
<path d="M19 34.4H2L2.00012 46H46.0001V2H2.00012L2.00006 23.25" stroke="white" stroke-width="1.2" stroke-linecap="round"/>
</svg>
