<svg width="94" height="70" viewBox="0 0 94 70" fill="none" xmlns="http://www.w3.org/2000/svg">
<path d="M1.54413 56.92H3.25613V65.592H7.48013V67H1.54413V56.92ZM11.0155 56.92V67H9.3035V56.92H11.0155ZM14.4361 56.92L16.3881 62.44C16.4521 62.6213 16.5215 62.824 16.5961 63.048C16.6815 63.272 16.7668 63.5067 16.8521 63.752C16.9375 63.9867 17.0175 64.2267 17.0921 64.472C17.1775 64.7067 17.2521 64.9253 17.3161 65.128H17.3481C17.4015 64.9253 17.4655 64.712 17.5401 64.488C17.6148 64.2533 17.6895 64.0187 17.7641 63.784C17.8388 63.5493 17.9135 63.3253 17.9881 63.112C18.0628 62.8987 18.1321 62.712 18.1961 62.552L20.2441 56.92H22.0201L18.1801 67H16.4361L12.6281 56.92H14.4361ZM23.6191 56.92H29.8591V58.296H25.3311V61.08H29.4431V62.44H25.3311V65.624H29.9071V67H23.6191V56.92ZM32.1769 56.92H34.9449C35.4142 56.92 35.8462 56.9787 36.2409 57.096C36.6462 57.2133 36.9929 57.3947 37.2809 57.64C37.5689 57.8747 37.7929 58.1733 37.9529 58.536C38.1235 58.888 38.2089 59.3093 38.2089 59.8C38.2089 60.28 38.1182 60.7013 37.9369 61.064C37.7662 61.4267 37.5262 61.736 37.2169 61.992C36.9182 62.2373 36.5609 62.424 36.1449 62.552C35.7395 62.6693 35.2969 62.728 34.8169 62.728H33.0089V67H32.1769V56.92ZM33.0089 62.056H34.4169C34.8542 62.056 35.2489 62.0187 35.6009 61.944C35.9635 61.8693 36.2675 61.7467 36.5129 61.576C36.7689 61.3947 36.9662 61.16 37.1049 60.872C37.2435 60.584 37.3129 60.232 37.3129 59.816C37.3129 59.3787 37.2329 59.016 37.0729 58.728C36.9235 58.44 36.7262 58.216 36.4809 58.056C36.2355 57.8853 35.9529 57.768 35.6329 57.704C35.3235 57.6293 35.0035 57.592 34.6729 57.592H33.0089V62.056ZM40.6081 56.92H41.4401V66.328H46.0641V67H40.6081V56.92ZM50.9689 56.92H51.8009L55.6089 67H54.7129L53.6089 64.024H49.0969L47.9929 67H47.1129L50.9689 56.92ZM49.3529 63.352H53.3369L52.0729 59.896C52.0515 59.832 52.0142 59.72 51.9609 59.56C51.9075 59.4 51.8489 59.2187 51.7849 59.016C51.7209 58.8133 51.6515 58.6 51.5769 58.376C51.5129 58.152 51.4542 57.944 51.4009 57.752H51.3689C51.3155 57.944 51.2515 58.1467 51.1769 58.36C51.1129 58.5733 51.0435 58.7813 50.9689 58.984C50.9049 59.176 50.8409 59.352 50.7769 59.512C50.7235 59.672 50.6809 59.8 50.6489 59.896L49.3529 63.352ZM57.705 56.92H58.505L62.905 63.544C63.1503 63.9067 63.3903 64.264 63.625 64.616C63.8597 64.968 64.089 65.3253 64.313 65.688H64.345C64.3237 65.2827 64.313 64.872 64.313 64.456C64.313 64.04 64.313 63.6293 64.313 63.224V56.92H65.113V67H64.313L60.057 60.664C59.769 60.2373 59.4917 59.8 59.225 59.352C58.969 58.904 58.7237 58.456 58.489 58.008H58.457C58.489 59 58.505 59.992 58.505 60.984V67H57.705V56.92ZM68.0737 56.92H68.8737L73.2737 63.544C73.5191 63.9067 73.7591 64.264 73.9937 64.616C74.2284 64.968 74.4577 65.3253 74.6817 65.688H74.7137C74.6924 65.2827 74.6817 64.872 74.6817 64.456C74.6817 64.04 74.6817 63.6293 74.6817 63.224V56.92H75.4817V67H74.6817L70.4257 60.664C70.1377 60.2373 69.8604 59.8 69.5937 59.352C69.3377 58.904 69.0924 58.456 68.8577 58.008H68.8257C68.8577 59 68.8737 59.992 68.8737 60.984V67H68.0737V56.92ZM78.4425 56.92H84.2025V57.592H79.2745V61.48H83.7865V62.152H79.2745V66.328H84.2505V67H78.4425V56.92ZM86.6394 56.92H89.5834C90.106 56.92 90.5647 56.9893 90.9594 57.128C91.3647 57.2667 91.7007 57.4587 91.9674 57.704C92.234 57.9493 92.4367 58.2427 92.5754 58.584C92.714 58.9253 92.7834 59.304 92.7834 59.72C92.7834 60.104 92.7194 60.456 92.5914 60.776C92.474 61.0853 92.314 61.3627 92.1114 61.608C91.9087 61.8427 91.674 62.0453 91.4074 62.216C91.1407 62.376 90.8634 62.4933 90.5754 62.568L93.3914 67H92.4314L89.8074 62.728H87.3914V67H86.6394V56.92ZM87.3914 62.056H89.2474C89.6314 62.056 89.9887 62.008 90.3194 61.912C90.65 61.816 90.9327 61.672 91.1674 61.48C91.402 61.288 91.5834 61.048 91.7114 60.76C91.85 60.472 91.9194 60.136 91.9194 59.752C91.9194 58.984 91.6954 58.4347 91.2474 58.104C90.7994 57.7627 90.138 57.592 89.2634 57.592H87.3914V62.056Z" fill="white"/>
<path d="M30.8004 35V34.0053H31.6397C32.1371 34.0053 32.5412 33.9534 32.8521 33.8498C33.1837 33.7255 33.422 33.4872 33.567 33.1349C33.7328 32.7826 33.8157 32.2541 33.8157 31.5495V16.2553C33.8157 15.53 33.7328 15.0015 33.567 14.6699C33.422 14.3176 33.1837 14.0897 32.8521 13.9861C32.5412 13.8617 32.1371 13.7995 31.6397 13.7995H30.8004V12.8048H38.9138V13.7995H38.1056C37.6289 13.7995 37.2248 13.8514 36.8932 13.955C36.5824 14.0586 36.344 14.2866 36.1782 14.6389C36.0125 14.9704 35.9296 15.4885 35.9296 16.1931V33.7877H43.0793C43.6595 33.7877 44.1155 33.684 44.447 33.4768C44.7786 33.2696 45.0066 32.9794 45.1309 32.6064C45.276 32.2334 45.3693 31.7982 45.4107 31.3008L45.6594 28.472H46.8096L46.592 35H30.8004ZM48.6893 35V34.0053H49.5286C50.026 34.0053 50.4301 33.9534 50.7409 33.8498C51.0725 33.7255 51.3108 33.4872 51.4559 33.1349C51.6217 32.7826 51.7046 32.2541 51.7046 31.5495V16.1931C51.7046 15.4885 51.6217 14.9704 51.4559 14.6389C51.3108 14.2866 51.0725 14.0586 50.7409 13.955C50.4093 13.8514 50.0052 13.7995 49.5286 13.7995H48.6893V12.8048H56.9892C59.476 12.8048 61.2893 13.3747 62.4292 14.5145C63.569 15.6336 64.1389 17.2086 64.1389 19.2395C64.1389 20.1928 64.0042 21.0943 63.7348 21.944C63.4653 22.7937 63.0198 23.5397 62.3981 24.1822C61.7971 24.8246 60.9889 25.3323 59.9734 25.7054C58.9786 26.0784 57.7559 26.2649 56.3053 26.2649H53.8184V31.6117C53.8184 32.3163 53.9013 32.8447 54.0671 33.197C54.2329 33.5286 54.4712 33.7462 54.7821 33.8498C55.1137 33.9534 55.5178 34.0053 55.9944 34.0053H57.4244V35H48.6893ZM56.1188 25.1147C57.1964 25.1147 58.1082 24.9904 58.8543 24.7417C59.6004 24.4723 60.2013 24.0889 60.6573 23.5915C61.1132 23.0942 61.4344 22.4932 61.6209 21.7886C61.8282 21.0632 61.9318 20.2343 61.9318 19.3017C61.9318 18.1205 61.7556 17.1361 61.4033 16.3486C61.0717 15.5611 60.5226 14.9704 59.7558 14.5767C58.989 14.1829 57.9735 13.9861 56.7094 13.9861H53.8184V25.1147H56.1188Z" fill="white"/>
<path d="M42 34.4H25L25.0001 46H69.0001V2H25.0001L25.0001 23.25" stroke="white" stroke-width="1.2" stroke-linecap="round"/>
</svg>
