<svg width="43" height="42" viewBox="0 0 43 42" fill="none" xmlns="http://www.w3.org/2000/svg">
<path d="M8.16663 21.6668V30.3335C8.16663 31.8063 9.36053 33.0002 10.8333 33.0002H32.1666C33.6394 33.0002 34.8333 31.8063 34.8333 30.3335V21.6668M8.16663 21.6668V17.0002C8.16663 15.5274 9.36053 14.3335 10.8333 14.3335H32.1666C33.6394 14.3335 34.8333 15.5274 34.8333 17.0002V21.6668M8.16663 21.6668H34.8333" stroke="white" stroke-linecap="round" stroke-linejoin="round"/>
<path d="M16.1666 21.713V25M16.1666 14.1499V11.6667C16.1666 10.9594 16.4476 10.2811 16.9477 9.78105C17.4478 9.28095 18.126 9 18.8333 9H24.1666C24.8739 9 25.5521 9.28095 26.0522 9.78105C26.5523 10.2811 26.8333 10.9594 26.8333 11.6667V14.1499M26.8333 25V21.713" stroke="white" stroke-linecap="round" stroke-linejoin="round"/>
</svg>
