<svg width="77" height="62" viewBox="0 0 77 62" fill="none" xmlns="http://www.w3.org/2000/svg">
<path d="M19.7837 61.2002C16.2637 61.2002 13.3837 60.4802 11.1437 59.0402C8.9037 57.6002 7.0637 55.7602 5.6237 53.5202C4.0237 50.8002 2.9037 48.0002 2.2637 45.1202C1.7837 42.0802 1.5437 39.6002 1.5437 37.6802C1.5437 29.8402 3.5437 22.7202 7.5437 16.3202C11.5437 9.92023 17.7837 4.72022 26.2637 0.720215L28.4237 5.04021C23.4637 7.12022 19.1437 10.4002 15.4637 14.8802C11.9437 19.3602 10.1837 23.9202 10.1837 28.5602C10.1837 30.4802 10.4237 32.1602 10.9037 33.6002C13.4637 31.5202 16.4237 30.4802 19.7837 30.4802C23.9437 30.4802 27.5437 31.8402 30.5837 34.5602C33.6237 37.2802 35.1437 41.0402 35.1437 45.8402C35.1437 50.3202 33.6237 54.0002 30.5837 56.8802C27.5437 59.7602 23.9437 61.2002 19.7837 61.2002ZM60.5837 61.2002C57.0637 61.2002 54.1837 60.4802 51.9437 59.0402C49.7037 57.6002 47.8637 55.7602 46.4237 53.5202C44.8237 50.8002 43.7037 48.0002 43.0637 45.1202C42.5837 42.0802 42.3437 39.6002 42.3437 37.6802C42.3437 29.8402 44.3437 22.7202 48.3437 16.3202C52.3437 9.92023 58.5837 4.72022 67.0637 0.720215L69.2237 5.04021C64.2637 7.12022 59.9437 10.4002 56.2637 14.8802C52.7437 19.3602 50.9837 23.9202 50.9837 28.5602C50.9837 30.4802 51.2237 32.1602 51.7037 33.6002C54.2637 31.5202 57.2237 30.4802 60.5837 30.4802C64.7437 30.4802 68.3437 31.8402 71.3837 34.5602C74.4237 37.2802 75.9437 41.0402 75.9437 45.8402C75.9437 50.3202 74.4237 54.0002 71.3837 56.8802C68.3437 59.7602 64.7437 61.2002 60.5837 61.2002Z" fill="#9A9EA0" fill-opacity="0.18"/>
</svg>
